<svg width="216" height="105" viewBox="0 0 216 105" fill="none" xmlns="http://www.w3.org/2000/svg">
<g clip-path="url(#clip0_466_198)">
<path d="M101.538 18.0002L34.3563 35.4793L0 0.520996L101.538 18.0002Z" fill="url(#paint0_linear_466_198)" style=""/>
<path d="M71.5034 12.8229L116.617 0L52.3726 83.3021L71.5034 12.8229Z" fill="url(#paint1_linear_466_198)" style=""/>
<path d="M73.9094 55.521L60.5376 105L34.3564 35.4793L49.8735 31.3335L73.9094 55.521Z" fill="url(#paint2_linear_466_198)" style=""/>
<path d="M73.9091 55.521L49.8733 31.3335L48.811 31.6147L72.5032 56.021L73.9091 55.521Z" fill="url(#paint3_linear_466_198)" style=""/>
<path d="M72.5035 56.021L73.9094 55.521L60.5376 105L72.5035 56.021Z" fill="url(#paint4_linear_466_198)" style=""/>
<path d="M72.5865 13.8229L116.618 0L71.5034 12.8229L72.5865 13.8229Z" fill="url(#paint5_linear_466_198)" style=""/>
<path d="M71.5038 12.8228L72.514 13.8228L63.4953 45.0415L62.9121 44.4582L71.5038 12.8228Z" fill="url(#paint6_linear_466_198)" style=""/>
<path d="M34.3563 33.8856V35.4793L0 0.520996L34.3563 33.8856Z" fill="url(#paint7_linear_466_198)" style=""/>
<path d="M34.3564 35.479L67.713 26.7603L67.9317 25.979L34.3564 33.8853V35.479Z" fill="url(#paint8_linear_466_198)" style=""/>
<path d="M128.094 59.375H126.563L126.178 55.5521H114.337V34.8125H116.555V53.4792H123.71V34.8125H125.928V53.4792H128.094V59.375Z" fill="#111111" style="fill:#111111;fill:color(display-p3 0.0667 0.0667 0.0667);fill-opacity:1;"/>
<path d="M130.479 41.6667C131.126 41.2852 131.829 41.0076 132.562 40.8438C133.407 40.6389 134.274 40.5375 135.144 40.5417C135.831 40.5086 136.516 40.637 137.144 40.9167C137.627 41.149 138.038 41.5093 138.331 41.9584C138.622 42.3931 138.811 42.8881 138.883 43.4063C138.975 43.9676 139.02 44.5355 139.018 45.1042C139.018 46.2813 139.018 47.4376 138.945 48.5626C138.873 49.6876 138.873 50.7501 138.873 51.7605C138.858 52.4557 138.883 53.1512 138.945 53.8438C138.998 54.4571 139.092 55.0662 139.227 55.6667H137.56L137.04 53.9167H136.925C136.603 54.4402 136.165 54.8823 135.644 55.2084C134.952 55.6162 134.155 55.8118 133.353 55.7709C132.866 55.7869 132.38 55.6954 131.932 55.5028C131.484 55.3101 131.084 55.0211 130.76 54.6563C130.03 53.8125 129.657 52.7182 129.718 51.6042C129.701 50.8853 129.851 50.1722 130.156 49.5209C130.422 48.959 130.836 48.4801 131.354 48.1355C131.91 47.7595 132.537 47.5008 133.197 47.3751C133.985 47.2193 134.788 47.146 135.592 47.1563H136.79C136.852 46.5383 136.883 45.9966 136.883 45.5313C136.956 44.7076 136.782 43.8808 136.384 43.1563C136.158 42.9037 135.874 42.71 135.556 42.592C135.239 42.4741 134.897 42.4353 134.561 42.4792C133.959 42.4893 133.361 42.5732 132.78 42.7292C132.216 42.8681 131.673 43.0818 131.166 43.3647L130.479 41.6667ZM136.842 48.8334H135.675C135.229 48.8409 134.783 48.8827 134.342 48.9584C133.923 49.0294 133.518 49.1703 133.145 49.3751C132.803 49.5664 132.516 49.8426 132.312 50.1771C132.093 50.5636 131.988 51.0043 132.01 51.448C131.967 52.1072 132.167 52.7593 132.572 53.2813C132.757 53.4901 132.985 53.656 133.24 53.7675C133.496 53.8791 133.772 53.9335 134.051 53.9271C134.732 53.9675 135.405 53.7603 135.946 53.3438C136.361 52.9932 136.682 52.546 136.883 52.0417L136.842 48.8334Z" fill="#111111" style="fill:#111111;fill:color(display-p3 0.0667 0.0667 0.0667);fill-opacity:1;"/>
<path d="M142.611 40.7292H144.121L144.444 42.3334H144.559C144.881 41.7099 145.378 41.1932 145.987 40.8457C146.597 40.4982 147.295 40.3347 147.995 40.3751C148.681 40.3343 149.365 40.4745 149.979 40.7817C150.593 41.0888 151.116 41.5521 151.495 42.1251C152.276 43.2813 152.671 45.1772 152.661 47.8334C152.674 48.9632 152.544 50.0901 152.276 51.1876C152.066 52.0934 151.696 52.9543 151.182 53.7292C150.758 54.3998 150.168 54.9495 149.469 55.3254C148.771 55.7013 147.987 55.8906 147.194 55.8751C146.736 55.8875 146.279 55.8526 145.829 55.7709C145.445 55.6862 145.076 55.5421 144.736 55.3438V61.4584H142.653L142.611 40.7292ZM144.694 53.2292C144.973 53.4675 145.29 53.6576 145.631 53.7917C146.073 53.9444 146.539 54.0151 147.006 54.0001C147.528 53.9936 148.038 53.8396 148.477 53.5558C148.915 53.2719 149.265 52.8698 149.485 52.3959C150.171 50.9807 150.486 49.4144 150.401 47.8438C150.411 47.0908 150.359 46.3382 150.245 45.5938C150.162 44.9939 149.986 44.4105 149.724 43.8647C149.523 43.4099 149.212 43.0125 148.818 42.7084C148.425 42.4341 147.954 42.2952 147.475 42.3126C146.038 42.3126 145.111 43.1876 144.694 44.948V53.2292Z" fill="#111111" style="fill:#111111;fill:color(display-p3 0.0667 0.0667 0.0667);fill-opacity:1;"/>
<path d="M163.784 54.7814C163.281 55.1671 162.708 55.4502 162.096 55.6147C161.451 55.7896 160.786 55.8772 160.118 55.8751C159.286 55.9058 158.46 55.7191 157.722 55.3335C157.064 54.9596 156.518 54.4166 156.14 53.7606C155.701 53.0001 155.401 52.1677 155.254 51.3022C155.057 50.2726 154.962 49.2257 154.973 48.1772C154.849 46.1638 155.316 44.158 156.317 42.4064C156.736 41.7723 157.312 41.2572 157.989 40.9105C158.666 40.5639 159.42 40.3974 160.18 40.4272C160.846 40.4181 161.51 40.488 162.159 40.6356C162.652 40.7503 163.128 40.9289 163.575 41.1668L162.982 43.0314C162.2 42.5799 161.312 42.3461 160.409 42.3543C159.918 42.3394 159.432 42.4622 159.007 42.7089C158.582 42.9555 158.235 43.3162 158.004 43.7501C157.368 45.1312 157.088 46.6498 157.191 48.1668C157.188 48.9308 157.247 49.6938 157.368 50.4481C157.46 51.092 157.661 51.7155 157.962 52.2918C158.199 52.7893 158.557 53.2192 159.003 53.5418C159.485 53.8574 160.052 54.0174 160.628 54.0001C161.12 53.999 161.607 53.9072 162.065 53.7293C162.446 53.5823 162.798 53.3709 163.107 53.1043L163.784 54.7814Z" fill="#111111" style="fill:#111111;fill:color(display-p3 0.0667 0.0667 0.0667);fill-opacity:1;"/>
<path d="M169.522 48.8644H168.428V55.5207H166.345V40.729H168.428V47.4165L169.469 46.9998L173.083 40.7498H175.364L171.833 46.6769L170.792 47.6561L172.073 48.8332L175.853 55.5207H173.312L169.522 48.8644Z" fill="#111111" style="fill:#111111;fill:color(display-p3 0.0667 0.0667 0.0667);fill-opacity:1;"/>
<path d="M177.738 41.6667C178.388 41.2897 179.09 41.0123 179.821 40.8438C180.667 40.6389 181.534 40.5375 182.404 40.5417C183.091 40.5086 183.776 40.637 184.404 40.9167C184.884 41.1497 185.291 41.51 185.58 41.9584C185.873 42.3941 186.069 42.888 186.153 43.4063C186.237 43.9684 186.278 44.536 186.278 45.1042C186.278 46.2813 186.278 47.4376 186.205 48.5626C186.132 49.6876 186.132 50.7501 186.132 51.7605C186.118 52.4557 186.142 53.1512 186.205 53.8438C186.257 54.4571 186.351 55.0662 186.486 55.6667H184.82L184.299 53.9167H184.185C183.863 54.4402 183.425 54.8823 182.904 55.2084C182.212 55.6162 181.415 55.8118 180.613 55.7709C180.125 55.7869 179.64 55.6954 179.192 55.5028C178.744 55.3101 178.344 55.0211 178.02 54.6563C177.29 53.8125 176.917 52.7182 176.978 51.6042C176.968 50.887 177.114 50.1762 177.405 49.5209C177.685 48.9647 178.1 48.4882 178.613 48.1355C179.171 47.7613 179.797 47.5027 180.457 47.3751C181.245 47.2193 182.048 47.146 182.852 47.1563H184.049C184.112 46.5383 184.143 45.9966 184.143 45.5313C184.216 44.7076 184.042 43.8808 183.643 43.1563C183.417 42.9037 183.133 42.71 182.816 42.592C182.498 42.4741 182.157 42.4353 181.821 42.4792C181.219 42.4893 180.621 42.5732 180.04 42.7292C179.476 42.8681 178.933 43.0818 178.426 43.3647L177.738 41.6667ZM184.102 48.8334H182.935C182.475 48.8353 182.015 48.8737 181.56 48.948C181.141 49.019 180.736 49.1598 180.363 49.3646C180.019 49.5528 179.731 49.8298 179.53 50.1667C179.311 50.5532 179.206 50.9939 179.228 51.4376C179.185 52.0968 179.385 52.7488 179.79 53.2709C179.975 53.4796 180.203 53.6456 180.458 53.7571C180.714 53.8686 180.99 53.9231 181.269 53.9167C181.95 53.9571 182.623 53.7499 183.164 53.3334C183.579 52.9828 183.901 52.5356 184.102 52.0313V48.8334Z" fill="#111111" style="fill:#111111;fill:color(display-p3 0.0667 0.0667 0.0667);fill-opacity:1;"/>
<path d="M195.87 49.3956L194.068 49.7498L191.079 55.5206H188.569L191.319 50.4373L192.266 49.3956C191.444 49.2509 190.703 48.81 190.184 48.156C189.587 47.3795 189.288 46.4152 189.34 45.4373C189.273 44.7304 189.366 44.0175 189.613 43.3519C189.86 42.6863 190.255 42.0851 190.767 41.5935C191.905 40.7264 193.316 40.2942 194.745 40.3748C195.324 40.3728 195.902 40.4181 196.474 40.5102C197.015 40.5935 197.515 40.6977 198.025 40.8227V55.5206H195.943L195.87 49.3956ZM195.87 48.0414V42.5623C195.657 42.457 195.428 42.3867 195.193 42.3539C194.968 42.3331 194.741 42.3331 194.516 42.3539C194.122 42.3245 193.726 42.3748 193.352 42.5019C192.978 42.6289 192.634 42.8302 192.339 43.0935C192.067 43.3958 191.86 43.7502 191.729 44.1352C191.598 44.5202 191.547 44.9278 191.579 45.3331C191.562 45.7224 191.631 46.1107 191.78 46.4707C191.929 46.8306 192.156 47.1534 192.443 47.4164C193.083 47.9379 193.903 48.185 194.724 48.1039L195.87 48.0414Z" fill="#111111" style="fill:#111111;fill:color(display-p3 0.0667 0.0667 0.0667);fill-opacity:1;"/>
<path d="M103.735 68.5311H98.7679V81.3957H96.6851V66.604H105.912V81.3957H103.829L103.735 68.5311Z" fill="#111111" style="fill:#111111;fill:color(display-p3 0.0667 0.0667 0.0667);fill-opacity:1;"/>
<path d="M109.505 66.604H111.005L111.338 68.2082H111.432C111.756 67.5889 112.252 67.0755 112.859 66.7285C113.466 66.3815 114.159 66.2154 114.858 66.2499C115.545 66.2083 116.231 66.348 116.847 66.6552C117.463 66.9623 117.987 67.4261 118.367 67.9999C119.148 69.1665 119.534 71.0624 119.534 73.7082C119.546 74.838 119.417 75.9649 119.148 77.0624C118.955 77.9647 118.602 78.8254 118.107 79.604C117.67 80.2936 117.064 80.8602 116.347 81.2499C115.65 81.6156 114.874 81.8018 114.087 81.7915C113.63 81.8039 113.173 81.769 112.723 81.6874C112.356 81.5976 112.005 81.4537 111.681 81.2603V87.354H109.599L109.505 66.604ZM111.588 79.104C111.867 79.3423 112.183 79.5324 112.525 79.6665C112.967 79.8192 113.433 79.8898 113.9 79.8749C114.422 79.8684 114.932 79.7144 115.37 79.4305C115.809 79.1467 116.158 78.7446 116.378 78.2707C117.064 76.8555 117.38 75.2891 117.295 73.7186C117.302 72.9653 117.246 72.2127 117.128 71.4686C117.043 70.8897 116.878 70.3253 116.639 69.7915C116.429 69.3509 116.118 68.9656 115.733 68.6665C115.337 68.3969 114.867 68.2584 114.389 68.2707C112.952 68.2707 112.025 69.1457 111.609 70.9061L111.588 79.104Z" fill="#111111" style="fill:#111111;fill:color(display-p3 0.0667 0.0667 0.0667);fill-opacity:1;"/>
<path d="M129.875 72.9165L130.052 70.6769H129.938L128.896 73.1561L123.887 81.4894H122.502V66.604H124.585V75.3957L124.408 77.5519H124.522L125.501 75.1248L130.552 66.604H131.948V81.3957H129.865L129.875 72.9165Z" fill="#111111" style="fill:#111111;fill:color(display-p3 0.0667 0.0667 0.0667);fill-opacity:1;"/>
<path d="M135.644 66.6668L137.446 66.521C138.102 66.4585 138.873 66.4272 139.789 66.4272C141.002 66.3193 142.214 66.64 143.215 67.3335C143.579 67.6856 143.862 68.1136 144.042 68.5871C144.222 69.0606 144.295 69.5679 144.257 70.0731C144.24 70.777 144.054 71.4665 143.715 72.0835C143.368 72.7589 142.787 73.2847 142.08 73.5627V73.6772C142.877 73.8092 143.595 74.237 144.09 74.8751C144.523 75.5925 144.73 76.4238 144.684 77.2606C144.739 77.8864 144.645 78.5164 144.407 79.0981C144.17 79.6798 143.797 80.1963 143.319 80.6043C142.115 81.3746 140.695 81.7396 139.268 81.646C138.629 81.6593 137.989 81.635 137.352 81.5731L135.603 81.4064L135.644 66.6668ZM139.966 72.9168C140.241 72.9166 140.512 72.8524 140.758 72.7293C141.017 72.5953 141.253 72.4193 141.455 72.2085C141.664 71.9915 141.83 71.737 141.945 71.4585C142.06 71.1703 142.121 70.8628 142.122 70.5522C142.148 70.2483 142.112 69.9422 142.018 69.6523C141.923 69.3624 141.77 69.0945 141.57 68.8647C141.033 68.4593 140.365 68.2697 139.695 68.3335H138.571L137.779 68.396V72.9168H139.966ZM137.779 79.5731L138.612 79.6668H139.654C140.438 79.7304 141.218 79.5085 141.851 79.0418C142.105 78.7763 142.298 78.4593 142.418 78.1125C142.539 77.7656 142.583 77.3969 142.549 77.0314C142.571 76.392 142.36 75.7663 141.955 75.271C141.666 75.0076 141.325 74.809 140.953 74.6886C140.581 74.5682 140.188 74.5288 139.799 74.5731H137.821L137.779 79.5731Z" fill="#111111" style="fill:#111111;fill:color(display-p3 0.0667 0.0667 0.0667);fill-opacity:1;"/>
<path d="M155.077 72.9165L155.254 70.6769H155.171L154.129 73.1561L149.131 81.4894H147.746V66.604H149.828V75.3957L149.651 77.5519H149.776L150.745 75.1248L155.806 66.604H157.254V81.3957H155.171L155.077 72.9165Z" fill="#111111" style="fill:#111111;fill:color(display-p3 0.0667 0.0667 0.0667);fill-opacity:1;"/>
<path d="M167.262 68.5313H164.034C164.034 70.2083 163.898 71.8333 163.804 73.3958C163.73 74.7953 163.556 76.1877 163.284 77.5625C163.111 78.5787 162.759 79.5559 162.242 80.4479C162.06 80.7643 161.797 81.0271 161.481 81.2099C161.165 81.3928 160.806 81.4892 160.441 81.4896C160.151 81.4899 159.863 81.469 159.576 81.4271C159.351 81.3934 159.133 81.323 158.931 81.2188L159.254 79.3854C159.62 79.5077 160.02 79.4815 160.368 79.3125C160.691 79.1458 160.972 78.6354 161.211 77.7708C161.511 76.473 161.703 75.1525 161.784 73.8229C161.94 72.0521 162.034 69.6562 162.097 66.5312H169.386V81.3229H167.304L167.262 68.5313Z" fill="#111111" style="fill:#111111;fill:color(display-p3 0.0667 0.0667 0.0667);fill-opacity:1;"/>
<path d="M181.873 80.396C181.351 80.8648 180.738 81.2196 180.071 81.4377C179.325 81.6794 178.544 81.799 177.759 81.7919C176.925 81.8124 176.099 81.6264 175.354 81.2502C174.663 80.8834 174.081 80.3409 173.667 79.6773C173.193 78.9319 172.861 78.1056 172.688 77.2398C172.469 76.1881 172.365 75.1159 172.375 74.0419C172.245 72.0246 172.732 70.0154 173.771 68.2814C174.201 67.6419 174.787 67.1233 175.475 66.775C176.162 66.4267 176.927 66.2604 177.697 66.2919C178.252 66.2938 178.804 66.3638 179.342 66.5002C179.897 66.6432 180.403 66.9308 180.811 67.3335C181.289 67.8236 181.646 68.4195 181.852 69.0731C182.153 70.0186 182.29 71.0085 182.258 72.0002V73.0419C182.246 73.4428 182.211 73.8428 182.154 74.2398H174.645C174.637 75.0122 174.707 75.7835 174.854 76.5419C174.957 77.1638 175.176 77.7609 175.499 78.3023C175.78 78.7683 176.174 79.1555 176.645 79.4273C177.174 79.7166 177.771 79.857 178.374 79.8335C178.916 79.833 179.453 79.7305 179.957 79.5314C180.403 79.3868 180.812 79.1448 181.154 78.8231L181.873 80.396ZM180.217 72.4689C180.331 71.3444 180.114 70.2111 179.592 69.2085C179.404 68.8828 179.132 68.614 178.804 68.4306C178.476 68.2472 178.104 68.1561 177.728 68.1669C177.311 68.1527 176.897 68.2401 176.522 68.4215C176.146 68.603 175.82 68.8731 175.572 69.2085C174.956 70.1843 174.627 71.3145 174.625 72.4689H180.217Z" fill="#111111" style="fill:#111111;fill:color(display-p3 0.0667 0.0667 0.0667);fill-opacity:1;"/>
<path d="M192.422 68.5311H187.517V81.3957H185.435V66.604H192.464L192.422 68.5311Z" fill="#111111" style="fill:#111111;fill:color(display-p3 0.0667 0.0667 0.0667);fill-opacity:1;"/>
<path d="M201.66 72.9165L201.826 70.6769H201.712L200.671 73.1561L195.672 81.4894H194.287V66.604H196.369V75.3957L196.192 77.5519H196.307L197.286 75.1248L202.337 66.604H203.732V81.3957H201.649L201.66 72.9165Z" fill="#111111" style="fill:#111111;fill:color(display-p3 0.0667 0.0667 0.0667);fill-opacity:1;"/>
<path d="M213.428 75.2708L211.626 75.6354L208.637 81.3958H206.117L208.867 76.3125L209.814 75.2708C208.992 75.1181 208.253 74.6743 207.731 74.0208C207.135 73.2443 206.836 72.28 206.888 71.3021C206.816 70.5976 206.904 69.886 207.146 69.2204C207.387 68.5548 207.776 67.9524 208.283 67.4583C209.407 66.6117 210.794 66.1909 212.199 66.2708C212.778 66.2689 213.356 66.3142 213.928 66.4063C214.469 66.5 214.969 66.5938 215.48 66.7188V81.3958H213.397L213.428 75.2708ZM213.428 73.9167V68.4479C213.217 68.3366 212.988 68.2659 212.751 68.2396C212.524 68.1981 212.294 68.1772 212.064 68.1771C211.72 68.1349 211.371 68.161 211.037 68.2539C210.703 68.3468 210.391 68.5047 210.118 68.7186C209.845 68.9324 209.617 69.198 209.447 69.5001C209.277 69.8023 209.168 70.135 209.127 70.4792C209.101 70.7076 209.101 70.9383 209.127 71.1667C209.112 71.5549 209.18 71.9418 209.327 72.3013C209.474 72.6608 209.697 72.9843 209.981 73.25C210.62 73.7714 211.44 74.0186 212.262 73.9375L213.428 73.9167Z" fill="#111111" style="fill:#111111;fill:color(display-p3 0.0667 0.0667 0.0667);fill-opacity:1;"/>
<path d="M210.741 28.9584C211.094 28.8958 211.412 28.707 211.636 28.4272C211.887 28.0957 212.013 27.6861 211.99 27.2709C212.019 26.9705 211.979 26.6675 211.875 26.3843C211.77 26.1012 211.603 25.8453 211.386 25.6355C210.9 25.2659 210.299 25.0813 209.689 25.1147C209.441 25.1148 209.194 25.1357 208.95 25.1772C208.729 25.2078 208.51 25.2496 208.293 25.3022V31.5522H209.179V28.9376L209.949 29.0939L211.22 31.5522H212.261L211.084 29.3855L210.741 28.9584ZM209.699 28.4064H209.21V26.0418C209.301 25.9951 209.4 25.9634 209.502 25.948C209.595 25.9376 209.689 25.9376 209.783 25.948C210.121 25.9266 210.454 26.0388 210.71 26.2605C210.828 26.3886 210.917 26.5401 210.973 26.7053C211.029 26.8704 211.049 27.0454 211.032 27.2189C211.042 27.3843 211.014 27.5499 210.951 27.7031C210.888 27.8564 210.791 27.9935 210.668 28.1043C210.535 28.2164 210.38 28.3009 210.214 28.3527C210.048 28.4046 209.873 28.4228 209.699 28.4064Z" fill="#111111" style="fill:#111111;fill:color(display-p3 0.0667 0.0667 0.0667);fill-opacity:1;"/>
<path d="M210.137 22.75C208.977 22.75 207.843 23.0942 206.878 23.7391C205.914 24.384 205.162 25.3005 204.719 26.3727C204.275 27.4449 204.16 28.6246 204.387 29.7625C204.614 30.9004 205.173 31.9454 205.994 32.7652C206.815 33.5849 207.861 34.1426 208.999 34.3677C210.137 34.5929 211.316 34.4752 212.388 34.0298C213.459 33.5843 214.374 32.831 215.017 31.8652C215.66 30.8994 216.002 29.7645 216 28.6042C215.997 27.0506 215.378 25.5616 214.279 24.464C213.18 23.3664 211.69 22.75 210.137 22.75ZM210.137 33.6875C209.131 33.6875 208.149 33.3894 207.313 32.8308C206.477 32.2722 205.826 31.4783 205.441 30.5495C205.057 29.6206 204.956 28.5985 205.152 27.6125C205.348 26.6264 205.832 25.7206 206.543 25.0097C207.254 24.2988 208.159 23.8146 209.145 23.6185C210.131 23.4224 211.153 23.523 212.081 23.9078C213.01 24.2925 213.804 24.9441 214.362 25.78C214.921 26.616 215.219 27.5988 215.219 28.6042C215.216 29.9515 214.68 31.2429 213.727 32.1956C212.775 33.1483 211.484 33.6847 210.137 33.6875Z" fill="#111111" style="fill:#111111;fill:color(display-p3 0.0667 0.0667 0.0667);fill-opacity:1;"/>
</g>
<defs>
<linearGradient id="paint0_linear_466_198" x1="46.2805" y1="-10.1665" x2="55.6888" y2="30.5513" gradientUnits="userSpaceOnUse">
<stop stop-color="#9EC54C" style="stop-color:#9EC54C;stop-color:color(display-p3 0.6196 0.7725 0.2980);stop-opacity:1;"/>
<stop offset="0.34" stop-color="#B7D046" style="stop-color:#B7D046;stop-color:color(display-p3 0.7176 0.8157 0.2745);stop-opacity:1;"/>
<stop offset="0.75" stop-color="#CFDA41" style="stop-color:#CFDA41;stop-color:color(display-p3 0.8118 0.8549 0.2549);stop-opacity:1;"/>
<stop offset="1" stop-color="#D8DE3F" style="stop-color:#D8DE3F;stop-color:color(display-p3 0.8471 0.8706 0.2471);stop-opacity:1;"/>
</linearGradient>
<linearGradient id="paint1_linear_466_198" x1="93.4668" y1="-4.5" x2="75.5149" y2="87.8109" gradientUnits="userSpaceOnUse">
<stop stop-color="#64A8DF" style="stop-color:#64A8DF;stop-color:color(display-p3 0.3922 0.6588 0.8745);stop-opacity:1;"/>
<stop offset="0.28" stop-color="#5995D1" style="stop-color:#5995D1;stop-color:color(display-p3 0.3490 0.5843 0.8196);stop-opacity:1;"/>
<stop offset="0.73" stop-color="#4B7DBF" style="stop-color:#4B7DBF;stop-color:color(display-p3 0.2941 0.4902 0.7490);stop-opacity:1;"/>
<stop offset="1" stop-color="#4674B8" style="stop-color:#4674B8;stop-color:color(display-p3 0.2745 0.4549 0.7216);stop-opacity:1;"/>
</linearGradient>
<linearGradient id="paint2_linear_466_198" x1="34.3564" y1="68.1668" x2="73.9094" y2="68.1668" gradientUnits="userSpaceOnUse">
<stop stop-color="#A32330" style="stop-color:#A32330;stop-color:color(display-p3 0.6392 0.1373 0.1882);stop-opacity:1;"/>
<stop offset="0.13" stop-color="#AA1D3F" style="stop-color:#AA1D3F;stop-color:color(display-p3 0.6667 0.1137 0.2471);stop-opacity:1;"/>
<stop offset="0.51" stop-color="#BB0D67" style="stop-color:#BB0D67;stop-color:color(display-p3 0.7333 0.0510 0.4039);stop-opacity:1;"/>
<stop offset="0.81" stop-color="#C6047F" style="stop-color:#C6047F;stop-color:color(display-p3 0.7765 0.0157 0.4980);stop-opacity:1;"/>
<stop offset="1" stop-color="#CA0088" style="stop-color:#CA0088;stop-color:color(display-p3 0.7922 0.0000 0.5333);stop-opacity:1;"/>
</linearGradient>
<linearGradient id="paint3_linear_466_198" x1="48.811" y1="43.6772" x2="73.9092" y2="43.6772" gradientUnits="userSpaceOnUse">
<stop stop-color="#BA205A" style="stop-color:#BA205A;stop-color:color(display-p3 0.7294 0.1255 0.3529);stop-opacity:1;"/>
<stop offset="0.18" stop-color="#CB5581" stop-opacity="0.88" style="stop-color:#CB5581;stop-color:color(display-p3 0.7961 0.3333 0.5059);stop-opacity:0.88;"/>
<stop offset="0.54" stop-color="#E7B1C6" stop-opacity="0.67" style="stop-color:#E7B1C6;stop-color:color(display-p3 0.9059 0.6941 0.7765);stop-opacity:0.67;"/>
<stop offset="0.83" stop-color="#F9EAF0" stop-opacity="0.55" style="stop-color:#F9EAF0;stop-color:color(display-p3 0.9765 0.9176 0.9412);stop-opacity:0.55;"/>
<stop offset="1" stop-color="white" stop-opacity="0.5" style="stop-color:white;stop-opacity:0.5;"/>
</linearGradient>
<linearGradient id="paint4_linear_466_198" x1="60.5376" y1="80.2606" x2="73.9094" y2="80.2606" gradientUnits="userSpaceOnUse">
<stop stop-color="#A32330" style="stop-color:#A32330;stop-color:color(display-p3 0.6392 0.1373 0.1882);stop-opacity:1;"/>
<stop offset="0.23" stop-color="#96223B" stop-opacity="0.85" style="stop-color:#96223B;stop-color:color(display-p3 0.5882 0.1333 0.2314);stop-opacity:0.85;"/>
<stop offset="0.57" stop-color="#852149" stop-opacity="0.66" style="stop-color:#852149;stop-color:color(display-p3 0.5216 0.1294 0.2863);stop-opacity:0.66;"/>
<stop offset="0.84" stop-color="#7B2052" stop-opacity="0.54" style="stop-color:#7B2052;stop-color:color(display-p3 0.4824 0.1255 0.3216);stop-opacity:0.54;"/>
<stop offset="1" stop-color="#772055" stop-opacity="0.5" style="stop-color:#772055;stop-color:color(display-p3 0.4667 0.1255 0.3333);stop-opacity:0.5;"/>
</linearGradient>
<linearGradient id="paint5_linear_466_198" x1="71.5034" y1="6.91667" x2="116.618" y2="6.91667" gradientUnits="userSpaceOnUse">
<stop stop-color="white" stop-opacity="0.5" style="stop-color:white;stop-opacity:0.5;"/>
<stop offset="0.25" stop-color="#E2E9F4" stop-opacity="0.58" style="stop-color:#E2E9F4;stop-color:color(display-p3 0.8863 0.9137 0.9569);stop-opacity:0.58;"/>
<stop offset="0.67" stop-color="#94AFD6" stop-opacity="0.79" style="stop-color:#94AFD6;stop-color:color(display-p3 0.5804 0.6863 0.8392);stop-opacity:0.79;"/>
<stop offset="1" stop-color="#4674B8" style="stop-color:#4674B8;stop-color:color(display-p3 0.2745 0.4549 0.7216);stop-opacity:1;"/>
</linearGradient>
<linearGradient id="paint6_linear_466_198" x1="62.9121" y1="28.9373" x2="72.514" y2="28.9373" gradientUnits="userSpaceOnUse">
<stop stop-color="#305081" style="stop-color:#305081;stop-color:color(display-p3 0.1882 0.3137 0.5059);stop-opacity:1;"/>
<stop offset="1" stop-color="#295082" style="stop-color:#295082;stop-color:color(display-p3 0.1608 0.3137 0.5098);stop-opacity:1;"/>
</linearGradient>
<linearGradient id="paint7_linear_466_198" x1="0" y1="18.0002" x2="34.3563" y2="18.0002" gradientUnits="userSpaceOnUse">
<stop stop-color="#9EC54C" style="stop-color:#9EC54C;stop-color:color(display-p3 0.6196 0.7725 0.2980);stop-opacity:1;"/>
<stop offset="0.32" stop-color="#7EB04C" stop-opacity="0.79" style="stop-color:#7EB04C;stop-color:color(display-p3 0.4941 0.6902 0.2980);stop-opacity:0.79;"/>
<stop offset="0.62" stop-color="#66A04B" stop-opacity="0.63" style="stop-color:#66A04B;stop-color:color(display-p3 0.4000 0.6275 0.2941);stop-opacity:0.63;"/>
<stop offset="0.86" stop-color="#57964B" stop-opacity="0.54" style="stop-color:#57964B;stop-color:color(display-p3 0.3412 0.5882 0.2941);stop-opacity:0.54;"/>
<stop offset="1" stop-color="#51924B" stop-opacity="0.5" style="stop-color:#51924B;stop-color:color(display-p3 0.3176 0.5725 0.2941);stop-opacity:0.5;"/>
</linearGradient>
<linearGradient id="paint8_linear_466_198" x1="34.3564" y1="30.729" x2="67.9317" y2="30.729" gradientUnits="userSpaceOnUse">
<stop stop-color="#F5F7DB" style="stop-color:#F5F7DB;stop-color:color(display-p3 0.9608 0.9686 0.8588);stop-opacity:1;"/>
<stop offset="0.15" stop-color="#F4F6D2" style="stop-color:#F4F6D2;stop-color:color(display-p3 0.9569 0.9647 0.8235);stop-opacity:1;"/>
<stop offset="0.39" stop-color="#F2F3BA" style="stop-color:#F2F3BA;stop-color:color(display-p3 0.9490 0.9529 0.7294);stop-opacity:1;"/>
<stop offset="0.69" stop-color="#EEEE92" style="stop-color:#EEEE92;stop-color:color(display-p3 0.9333 0.9333 0.5725);stop-opacity:1;"/>
<stop offset="1" stop-color="#E9E862" style="stop-color:#E9E862;stop-color:color(display-p3 0.9137 0.9098 0.3843);stop-opacity:1;"/>
</linearGradient>
<clipPath id="clip0_466_198">
<rect width="216" height="105" fill="white" style="fill:white;fill-opacity:1;"/>
</clipPath>
</defs>
</svg>
